<svg xmlns="http://www.w3.org/2000/svg" version="1.1" xmlns:xlink="http://www.w3.org/1999/xlink" width="1500" height="1500" viewBox="0 0 1500 1500"><rect width="1500" height="1500" x="0" y="0" id="background" stroke="transparent" fill="#ffffff"></rect><svg xml:space="preserve" width="1000" height="1000" data-version="2" data-id="lg_bFbHJ4lvWN7gxBabpm" viewBox="0 0 516 516" x="250" y="250"><rect width="100%" height="100%" fill="transparent"></rect><path fill="#008f36" d="M488.97 272.172c-116.54 8.24-209.642 101.342-217.882 217.881-.644 9.095 6.535 16.837 15.651 16.837H490.12c8.666 0 15.69-7.025 15.69-15.69V287.823c0-9.116-7.742-16.291-16.836-15.651ZM4.823 292.984c8.24 116.539 101.342 209.641 217.881 217.881 9.095.644 16.837-6.535 16.837-15.651V291.833c0-8.666-7.025-15.69-15.69-15.69H20.474c-9.116 0-16.291 7.742-15.651 16.836Zm506.354-68.594C502.937 107.851 409.835 14.75 293.295 6.51c-9.094-.644-16.836 6.535-16.836 15.651v203.381c0 8.666 7.025 15.69 15.69 15.69h203.377c9.116 0 16.291-7.742 15.651-16.836ZM222.704 5.133C106.163 13.373 13.061 106.475 4.821 223.015c-.644 9.094 6.535 16.836 15.651 16.836h203.381c8.666 0 15.69-7.025 15.69-15.69V20.784c0-9.116-7.742-16.291-16.836-15.651Z"></path></svg></svg>